<svg width="50" height="74" viewBox="0 0 50 74" fill="none" xmlns="http://www.w3.org/2000/svg">
<path d="M48.8556 59.9578C48.2569 59.9578 47.7716 60.4431 47.7716 61.0418V71.2332C47.7716 71.5632 47.503 71.8317 47.1731 71.8317H41.346V50.4849C41.346 49.8863 40.8607 49.4009 40.262 49.4009C39.6634 49.4009 39.178 49.8863 39.178 50.4849V71.8319H27.4443L30.847 68.0885C31.2187 67.6795 31.394 67.0969 31.3158 66.5295C31.3144 66.5185 31.3126 66.5075 31.3108 66.4965L28.0699 47.3509L28.9431 46.0365C29.4258 46.3794 29.7977 46.7095 30.495 46.7095C31.2044 46.7095 31.8676 46.3124 32.194 45.6589V45.6587L35.6122 38.8079L43.3989 41.8236C43.6806 41.9444 47.7713 43.7866 47.7713 48.651V55.983C47.7711 56.5815 48.2565 57.067 48.8553 57.067C49.4539 57.067 49.9393 56.5817 49.9393 55.983V48.651C49.9393 42.2419 44.4515 39.9122 44.218 39.816C44.2112 39.8132 44.2043 39.8104 44.1973 39.8078L31.2375 34.7888V31.7493C33.2959 30.1485 34.7231 27.7754 35.0814 25.0681C36.1078 24.9958 37.0601 24.6125 37.8378 23.9438C38.8534 23.0704 39.4362 21.7992 39.4362 20.4568C39.4362 19.3428 39.0342 18.279 38.3179 17.4501V13.4346C38.3178 6.02681 32.2911 0 24.8833 0C17.4755 0 11.4488 6.02681 11.4488 13.4346V17.5553C10.7249 18.3758 10.3312 19.3858 10.3312 20.4567C10.3312 21.7995 10.9136 23.0705 11.9296 23.9441C12.7067 24.6125 13.6584 24.9954 14.6845 25.0678C15.0456 27.8259 16.5145 30.2874 18.7482 31.9098V34.7888L5.80244 39.8077C5.79565 39.8103 5.78885 39.813 5.78206 39.8158C5.54835 39.9119 0.060791 42.2416 0.060791 48.6507V71.2329C0.060791 72.7585 1.30188 73.9996 2.82741 73.9996H13.1552C13.7538 73.9996 14.2392 73.5142 14.2392 72.9156C14.2392 72.3169 13.7538 71.8316 13.1552 71.8316H10.8229V50.4849C10.8229 49.8863 10.3375 49.4009 9.73889 49.4009C9.14024 49.4009 8.65491 49.8863 8.65491 50.4849V71.8319H2.82755C2.49759 71.8319 2.22905 71.5633 2.22905 71.2334V48.6508C2.22905 43.7701 6.34718 41.9321 6.60011 41.824L14.3808 38.8077L17.7993 45.6587C18.1263 46.3139 18.7905 46.7095 19.4984 46.7095C20.1923 46.7095 20.5605 46.3844 21.0503 46.0365L21.9235 47.3509L18.6829 66.4967C18.681 66.5075 18.6795 66.5183 18.6779 66.5293C18.5995 67.0965 18.7748 67.6794 19.1467 68.0887L22.5494 71.832H18.2142C17.6156 71.832 17.1302 72.3174 17.1302 72.916C17.1302 73.5147 17.6156 74 18.2142 74H47.1732C48.6987 74 49.9398 72.7588 49.9398 71.2334V61.0419C49.9395 60.4431 49.4542 59.9578 48.8556 59.9578ZM33.5816 38.0217L30.3949 44.4085C30.3157 44.3523 28.6268 43.1524 26.5623 41.6864C27.4581 40.5806 26.4101 41.8742 30.4986 36.8277L33.5816 38.0217ZM27.1743 44.7806L26.3478 46.0245H23.6447L22.8182 44.7806L24.9963 43.2336L27.1743 44.7806ZM20.9161 35.1386V33.1099C22.233 33.6408 23.6405 33.8869 25.015 33.8869C26.4362 33.8869 27.8299 33.584 29.0694 33.042V35.1474L24.9963 40.1749L20.9161 35.1386ZM37.2681 20.4568C37.2679 21.1669 36.9603 21.8388 36.4241 22.3C36.0696 22.605 35.6414 22.7999 35.1723 22.8763V18.0378C36.4182 18.2401 37.2681 19.2735 37.2681 20.4568ZM14.5949 22.8763C13.3348 22.6718 12.4992 21.63 12.4992 20.4567C12.4992 19.2978 13.4599 18.3546 14.5949 18.0923V22.8763ZM14.6531 15.8834C14.3078 15.923 13.9121 16.0165 13.6171 16.1168V13.4346C13.6171 7.22223 18.6711 2.16811 24.8835 2.16811C31.0958 2.16811 36.1498 7.22223 36.1498 13.4346V16.0424C35.8347 15.9466 35.5079 15.8833 35.1725 15.8535C35.1725 14.8075 35.1816 15.0093 31.7598 11.3305C31.1305 10.6544 30.0896 10.5128 29.2974 11.0303C25.5208 13.4973 20.9139 14.7367 16.6632 14.4314C15.7309 14.3616 14.8816 14.9758 14.6531 15.8834ZM16.763 23.7297V16.9668V16.6105C21.4422 16.8846 26.348 15.4945 30.3112 12.9564C31.8805 14.6413 32.7304 15.5251 33.0044 15.8613C33.0044 16.7117 33.0044 22.7562 33.0044 23.7296C33.0044 28.1301 29.4162 31.7187 25.0151 31.7187C20.073 31.7188 16.763 27.885 16.763 23.7297ZM19.5979 44.4085L16.4112 38.0217L19.4887 36.8297L23.4259 41.6896C21.4237 43.1114 19.7796 44.2795 19.5979 44.4085ZM20.8416 66.7304L23.9793 48.1924H26.013L29.1506 66.7304L24.9962 71.3009L20.8416 66.7304Z" fill="white"/>
</svg>
