<svg width="150" height="34" viewBox="0 0 150 34" fill="none" xmlns="http://www.w3.org/2000/svg">
<path d="M33.8027 7.42871H36.2705V9.21289H33.8027V12.002H31.9229V9.21289H29.4482V7.42871H31.9229V4.75586H33.8027V7.42871ZM44.1455 4.1543L40.2969 13H38.2119L42.0674 4.64648H37.1182V3.04688H44.1455V4.1543ZM49.0742 8.95312C49.0742 7.90951 49.2132 6.91602 49.4912 5.97266C49.7692 5.0293 50.1794 4.19531 50.7217 3.4707C51.264 2.74154 51.8519 2.23568 52.4854 1.95312L52.8682 3.01953C52.2028 3.51172 51.6833 4.27279 51.3096 5.30273C50.9359 6.33268 50.749 7.53581 50.749 8.91211V9.12402C50.749 10.5049 50.9336 11.7126 51.3027 12.7471C51.6719 13.7816 52.1937 14.554 52.8682 15.0645L52.4854 16.1104C51.8656 15.8324 51.2868 15.3402 50.749 14.6338C50.2158 13.932 49.8079 13.1208 49.5254 12.2002C49.2428 11.2796 49.0924 10.318 49.0742 9.31543V8.95312ZM60.5928 4.1543L56.7441 13H54.6592L58.5146 4.64648H53.5654V3.04688H60.5928V4.1543ZM66.6631 13H64.6875V5.38477L62.3291 6.11621V4.50977L66.4512 3.0332H66.6631V13ZM76.6709 4.1543L72.8223 13H70.7373L74.5928 4.64648H69.6436V3.04688H76.6709V4.1543ZM84.7646 13H77.9424V11.6465L81.1621 8.21484C81.6042 7.73177 81.93 7.31022 82.1396 6.9502C82.3538 6.59017 82.4609 6.24837 82.4609 5.9248C82.4609 5.48275 82.3493 5.13639 82.126 4.88574C81.9027 4.63053 81.5837 4.50293 81.1689 4.50293C80.7223 4.50293 80.3691 4.65788 80.1094 4.96777C79.8542 5.27311 79.7266 5.67643 79.7266 6.17773H77.7441C77.7441 5.57161 77.8877 5.0179 78.1748 4.5166C78.4665 4.0153 78.8766 3.62337 79.4053 3.34082C79.9339 3.05371 80.5332 2.91016 81.2031 2.91016C82.2285 2.91016 83.0238 3.15625 83.5889 3.64844C84.1585 4.14062 84.4434 4.83561 84.4434 5.7334C84.4434 6.22559 84.3158 6.72689 84.0605 7.2373C83.8053 7.74772 83.3678 8.34245 82.748 9.02148L80.4854 11.4072H84.7646V13ZM89.4678 9.11035C89.4678 10.1403 89.3197 11.1315 89.0234 12.084C88.7272 13.0365 88.3011 13.8773 87.7451 14.6064C87.1891 15.3356 86.5944 15.8369 85.9609 16.1104L85.5781 15.0645C86.2253 14.5768 86.7357 13.8249 87.1094 12.8086C87.4831 11.7923 87.6768 10.6234 87.6904 9.30176V8.93945C87.6904 7.57682 87.5036 6.37598 87.1299 5.33691C86.7607 4.29785 86.2435 3.51855 85.5781 2.99902L85.9609 1.95312C86.5807 2.22201 87.1641 2.70964 87.7109 3.41602C88.2624 4.1224 88.6885 4.94499 88.9893 5.88379C89.2946 6.82259 89.4541 7.79557 89.4678 8.80273V9.11035ZM101.226 13H94.4033V11.6465L97.623 8.21484C98.0651 7.73177 98.391 7.31022 98.6006 6.9502C98.8148 6.59017 98.9219 6.24837 98.9219 5.9248C98.9219 5.48275 98.8102 5.13639 98.5869 4.88574C98.3636 4.63053 98.0446 4.50293 97.6299 4.50293C97.1833 4.50293 96.8301 4.65788 96.5703 4.96777C96.3151 5.27311 96.1875 5.67643 96.1875 6.17773H94.2051C94.2051 5.57161 94.3486 5.0179 94.6357 4.5166C94.9274 4.0153 95.3376 3.62337 95.8662 3.34082C96.3949 3.05371 96.9941 2.91016 97.6641 2.91016C98.6895 2.91016 99.4847 3.15625 100.05 3.64844C100.619 4.14062 100.904 4.83561 100.904 5.7334C100.904 6.22559 100.777 6.72689 100.521 7.2373C100.266 7.74772 99.8288 8.34245 99.209 9.02148L96.9463 11.4072H101.226V13ZM108.287 9.25391H109.415V10.8467H108.287V13H106.312V10.8467H102.23L102.142 9.60254L106.291 3.04688H108.287V9.25391ZM104.11 9.25391H106.312V5.74023L106.182 5.96582L104.11 9.25391ZM120.735 4.1543L116.887 13H114.802L118.657 4.64648H113.708V3.04688H120.735V4.1543ZM128.829 13H122.007V11.6465L125.227 8.21484C125.669 7.73177 125.994 7.31022 126.204 6.9502C126.418 6.59017 126.525 6.24837 126.525 5.9248C126.525 5.48275 126.414 5.13639 126.19 4.88574C125.967 4.63053 125.648 4.50293 125.233 4.50293C124.787 4.50293 124.434 4.65788 124.174 4.96777C123.919 5.27311 123.791 5.67643 123.791 6.17773H121.809C121.809 5.57161 121.952 5.0179 122.239 4.5166C122.531 4.0153 122.941 3.62337 123.47 3.34082C123.998 3.05371 124.598 2.91016 125.268 2.91016C126.293 2.91016 127.088 3.15625 127.653 3.64844C128.223 4.14062 128.508 4.83561 128.508 5.7334C128.508 6.22559 128.38 6.72689 128.125 7.2373C127.87 7.74772 127.432 8.34245 126.812 9.02148L124.55 11.4072H128.829V13ZM140.02 5.69238C140.02 6.17546 139.899 6.60384 139.657 6.97754C139.416 7.35124 139.083 7.64974 138.659 7.87305C139.142 8.10547 139.525 8.42676 139.808 8.83691C140.09 9.24251 140.231 9.72103 140.231 10.2725C140.231 11.1566 139.931 11.8561 139.329 12.3711C138.728 12.8815 137.91 13.1367 136.875 13.1367C135.84 13.1367 135.02 12.8792 134.414 12.3643C133.808 11.8493 133.505 11.152 133.505 10.2725C133.505 9.72103 133.646 9.24023 133.929 8.83008C134.211 8.41992 134.592 8.10091 135.07 7.87305C134.646 7.64974 134.314 7.35124 134.072 6.97754C133.835 6.60384 133.717 6.17546 133.717 5.69238C133.717 4.84473 133.999 4.17025 134.564 3.66895C135.13 3.16309 135.897 2.91016 136.868 2.91016C137.834 2.91016 138.6 3.16081 139.165 3.66211C139.735 4.15885 140.02 4.83561 140.02 5.69238ZM138.249 10.1289C138.249 9.69596 138.124 9.34961 137.873 9.08984C137.622 8.83008 137.285 8.7002 136.861 8.7002C136.442 8.7002 136.107 8.83008 135.856 9.08984C135.606 9.34505 135.48 9.69141 135.48 10.1289C135.48 10.5527 135.604 10.8945 135.85 11.1543C136.096 11.4141 136.438 11.5439 136.875 11.5439C137.303 11.5439 137.638 11.4186 137.88 11.168C138.126 10.9173 138.249 10.571 138.249 10.1289ZM138.044 5.78809C138.044 5.40072 137.941 5.09082 137.736 4.8584C137.531 4.62142 137.242 4.50293 136.868 4.50293C136.499 4.50293 136.212 4.61686 136.007 4.84473C135.802 5.07259 135.699 5.38704 135.699 5.78809C135.699 6.18457 135.802 6.50358 136.007 6.74512C136.212 6.98665 136.501 7.10742 136.875 7.10742C137.249 7.10742 137.536 6.98665 137.736 6.74512C137.941 6.50358 138.044 6.18457 138.044 5.78809ZM148.271 8.88477C148.271 10.2611 147.986 11.3138 147.416 12.043C146.846 12.7721 146.012 13.1367 144.914 13.1367C143.829 13.1367 143 12.779 142.426 12.0635C141.852 11.348 141.558 10.3226 141.544 8.9873V7.15527C141.544 5.7653 141.831 4.71029 142.405 3.99023C142.984 3.27018 143.816 2.91016 144.9 2.91016C145.985 2.91016 146.814 3.2679 147.389 3.9834C147.963 4.69434 148.257 5.71745 148.271 7.05273V8.88477ZM146.295 6.875C146.295 6.05013 146.181 5.45085 145.953 5.07715C145.73 4.69889 145.379 4.50977 144.9 4.50977C144.436 4.50977 144.091 4.68978 143.868 5.0498C143.649 5.40527 143.533 5.96354 143.52 6.72461V9.14453C143.52 9.95573 143.629 10.5596 143.848 10.9561C144.071 11.348 144.426 11.5439 144.914 11.5439C145.397 11.5439 145.746 11.3548 145.96 10.9766C146.174 10.5983 146.286 10.0195 146.295 9.24023V6.875ZM35.3203 22.7197C35.3203 22.1911 35.1266 21.7718 34.7393 21.4619C34.3564 21.1475 33.8164 20.9902 33.1191 20.9902C32.5358 20.9902 32.0459 21.152 31.6494 21.4756C31.2575 21.7946 31.0615 22.1911 31.0615 22.665H29.749C29.749 22.1364 29.8926 21.6624 30.1797 21.2432C30.4714 20.8239 30.877 20.498 31.3965 20.2656C31.916 20.0286 32.4902 19.9102 33.1191 19.9102C34.2311 19.9102 35.0947 20.1608 35.71 20.6621C36.3252 21.1589 36.6328 21.8516 36.6328 22.7402C36.6328 23.2005 36.4915 23.6198 36.209 23.998C35.9264 24.3763 35.5322 24.6748 35.0264 24.8936C36.1976 25.2855 36.7832 26.0625 36.7832 27.2246C36.7832 28.1178 36.4505 28.8265 35.7852 29.3506C35.1198 29.8747 34.2311 30.1367 33.1191 30.1367C32.4583 30.1367 31.8568 30.0205 31.3145 29.7881C30.7767 29.5511 30.3574 29.2161 30.0566 28.7832C29.7559 28.3503 29.6055 27.8353 29.6055 27.2383H30.918C30.918 27.7624 31.1253 28.1999 31.54 28.5508C31.9548 28.8971 32.4811 29.0703 33.1191 29.0703C33.8346 29.0703 34.4043 28.904 34.8281 28.5713C35.2565 28.2386 35.4707 27.7988 35.4707 27.252C35.4707 26.0853 34.7484 25.4906 33.3037 25.4678H32.0732V24.3877H33.2969C33.9622 24.374 34.4658 24.2236 34.8076 23.9365C35.1494 23.6494 35.3203 23.2438 35.3203 22.7197ZM42.8945 30C42.8216 29.8542 42.7624 29.5944 42.7168 29.2207C42.1289 29.8314 41.4271 30.1367 40.6113 30.1367C39.8822 30.1367 39.2829 29.9316 38.8135 29.5215C38.3486 29.1068 38.1162 28.5827 38.1162 27.9492C38.1162 27.179 38.4079 26.582 38.9912 26.1582C39.5791 25.7298 40.404 25.5156 41.4658 25.5156H42.6963V24.9346C42.6963 24.4925 42.5641 24.1416 42.2998 23.8818C42.0355 23.6175 41.6458 23.4854 41.1309 23.4854C40.6797 23.4854 40.3014 23.5993 39.9961 23.8271C39.6908 24.055 39.5381 24.3307 39.5381 24.6543H38.2666C38.2666 24.2852 38.3965 23.9297 38.6562 23.5879C38.9206 23.2415 39.276 22.9681 39.7227 22.7676C40.1738 22.5671 40.6683 22.4668 41.2061 22.4668C42.0583 22.4668 42.7259 22.681 43.209 23.1094C43.6921 23.5332 43.9427 24.1188 43.9609 24.8662V28.2705C43.9609 28.9495 44.0475 29.4896 44.2207 29.8906V30H42.8945ZM40.7959 29.0361C41.1924 29.0361 41.5684 28.9336 41.9238 28.7285C42.2793 28.5234 42.5368 28.2568 42.6963 27.9287V26.4111H41.7051C40.1556 26.4111 39.3809 26.8646 39.3809 27.7715C39.3809 28.168 39.513 28.4779 39.7773 28.7012C40.0417 28.9245 40.3812 29.0361 40.7959 29.0361ZM48.2471 26.8486H47.3242V30H46.0527V22.6035H47.3242V25.7344H48.1514L50.6396 22.6035H52.1709L49.2451 26.1582L52.417 30H50.8105L48.2471 26.8486ZM58.0703 30C57.9974 29.8542 57.9382 29.5944 57.8926 29.2207C57.3047 29.8314 56.6029 30.1367 55.7871 30.1367C55.0579 30.1367 54.4587 29.9316 53.9893 29.5215C53.5244 29.1068 53.292 28.5827 53.292 27.9492C53.292 27.179 53.5837 26.582 54.167 26.1582C54.7549 25.7298 55.5798 25.5156 56.6416 25.5156H57.8721V24.9346C57.8721 24.4925 57.7399 24.1416 57.4756 23.8818C57.2113 23.6175 56.8216 23.4854 56.3066 23.4854C55.8555 23.4854 55.4772 23.5993 55.1719 23.8271C54.8665 24.055 54.7139 24.3307 54.7139 24.6543H53.4424C53.4424 24.2852 53.5723 23.9297 53.832 23.5879C54.0964 23.2415 54.4518 22.9681 54.8984 22.7676C55.3496 22.5671 55.8441 22.4668 56.3818 22.4668C57.234 22.4668 57.9017 22.681 58.3848 23.1094C58.8678 23.5332 59.1185 24.1188 59.1367 24.8662V28.2705C59.1367 28.9495 59.2233 29.4896 59.3965 29.8906V30H58.0703ZM55.9717 29.0361C56.3682 29.0361 56.7441 28.9336 57.0996 28.7285C57.4551 28.5234 57.7126 28.2568 57.8721 27.9287V26.4111H56.8809C55.3314 26.4111 54.5566 26.8646 54.5566 27.7715C54.5566 28.168 54.6888 28.4779 54.9531 28.7012C55.2174 28.9245 55.557 29.0361 55.9717 29.0361ZM65.1865 24.627C65.1865 24.2806 65.0544 24.0072 64.79 23.8066C64.5257 23.6016 64.1634 23.499 63.7031 23.499C63.2565 23.499 62.8828 23.6152 62.582 23.8477C62.2858 24.0801 62.1377 24.3535 62.1377 24.668H60.8799C60.8799 24.0254 61.1488 23.499 61.6865 23.0889C62.2243 22.6787 62.8965 22.4736 63.7031 22.4736C64.569 22.4736 65.2435 22.6605 65.7266 23.0342C66.2096 23.4033 66.4512 23.932 66.4512 24.6201C66.4512 24.9528 66.3509 25.2581 66.1504 25.5361C65.9499 25.8141 65.665 26.0352 65.2959 26.1992C66.1572 26.4909 66.5879 27.0651 66.5879 27.9219C66.5879 28.6009 66.3258 29.1387 65.8018 29.5352C65.2777 29.9316 64.5781 30.1299 63.7031 30.1299C62.8509 30.1299 62.1468 29.9225 61.5908 29.5078C61.0394 29.0885 60.7637 28.5234 60.7637 27.8125H62.0215C62.0215 28.1725 62.181 28.4824 62.5 28.7422C62.8236 28.9974 63.2246 29.125 63.7031 29.125C64.1862 29.125 64.5758 29.0133 64.8721 28.79C65.1683 28.5667 65.3164 28.2773 65.3164 27.9219C65.3164 27.5072 65.1911 27.2109 64.9404 27.0332C64.6943 26.8509 64.3092 26.7598 63.7852 26.7598H62.5205V25.6934H63.8945C64.7559 25.6706 65.1865 25.3151 65.1865 24.627ZM72.7949 30C72.722 29.8542 72.6628 29.5944 72.6172 29.2207C72.0293 29.8314 71.3275 30.1367 70.5117 30.1367C69.7826 30.1367 69.1833 29.9316 68.7139 29.5215C68.249 29.1068 68.0166 28.5827 68.0166 27.9492C68.0166 27.179 68.3083 26.582 68.8916 26.1582C69.4795 25.7298 70.3044 25.5156 71.3662 25.5156H72.5967V24.9346C72.5967 24.4925 72.4645 24.1416 72.2002 23.8818C71.9359 23.6175 71.5462 23.4854 71.0312 23.4854C70.5801 23.4854 70.2018 23.5993 69.8965 23.8271C69.5911 24.055 69.4385 24.3307 69.4385 24.6543H68.167C68.167 24.2852 68.2969 23.9297 68.5566 23.5879C68.821 23.2415 69.1764 22.9681 69.623 22.7676C70.0742 22.5671 70.5687 22.4668 71.1064 22.4668C71.9587 22.4668 72.6263 22.681 73.1094 23.1094C73.5924 23.5332 73.8431 24.1188 73.8613 24.8662V28.2705C73.8613 28.9495 73.9479 29.4896 74.1211 29.8906V30H72.7949ZM70.6963 29.0361C71.0928 29.0361 71.4688 28.9336 71.8242 28.7285C72.1797 28.5234 72.4372 28.2568 72.5967 27.9287V26.4111H71.6055C70.056 26.4111 69.2812 26.8646 69.2812 27.7715C69.2812 28.168 69.4134 28.4779 69.6777 28.7012C69.9421 28.9245 70.2816 29.0361 70.6963 29.0361ZM81.2305 23.6289H78.749V30H77.4844V23.6289H75.0508V22.6035H81.2305V23.6289ZM83.8418 25.1533H85.7627C86.6012 25.1624 87.2643 25.3812 87.752 25.8096C88.2396 26.238 88.4834 26.819 88.4834 27.5527C88.4834 28.291 88.2327 28.8835 87.7314 29.3301C87.2301 29.7767 86.5557 30 85.708 30H82.5771V22.6035H83.8418V25.1533ZM83.8418 26.1855V28.9678H85.7217C86.1956 28.9678 86.5625 28.847 86.8223 28.6055C87.082 28.3594 87.2119 28.0244 87.2119 27.6006C87.2119 27.1904 87.0843 26.8555 86.8291 26.5957C86.5785 26.3314 86.2253 26.1947 85.7695 26.1855H83.8418ZM97.6025 24.627C97.6025 24.2806 97.4704 24.0072 97.2061 23.8066C96.9417 23.6016 96.5794 23.499 96.1191 23.499C95.6725 23.499 95.2988 23.6152 94.998 23.8477C94.7018 24.0801 94.5537 24.3535 94.5537 24.668H93.2959C93.2959 24.0254 93.5648 23.499 94.1025 23.0889C94.6403 22.6787 95.3125 22.4736 96.1191 22.4736C96.985 22.4736 97.6595 22.6605 98.1426 23.0342C98.6257 23.4033 98.8672 23.932 98.8672 24.6201C98.8672 24.9528 98.7669 25.2581 98.5664 25.5361C98.3659 25.8141 98.0811 26.0352 97.7119 26.1992C98.5732 26.4909 99.0039 27.0651 99.0039 27.9219C99.0039 28.6009 98.7419 29.1387 98.2178 29.5352C97.6937 29.9316 96.9941 30.1299 96.1191 30.1299C95.2669 30.1299 94.5628 29.9225 94.0068 29.5078C93.4554 29.0885 93.1797 28.5234 93.1797 27.8125H94.4375C94.4375 28.1725 94.597 28.4824 94.916 28.7422C95.2396 28.9974 95.6406 29.125 96.1191 29.125C96.6022 29.125 96.9919 29.0133 97.2881 28.79C97.5843 28.5667 97.7324 28.2773 97.7324 27.9219C97.7324 27.5072 97.6071 27.2109 97.3564 27.0332C97.1104 26.8509 96.7253 26.7598 96.2012 26.7598H94.9365V25.6934H96.3105C97.1719 25.6706 97.6025 25.3151 97.6025 24.627ZM100.761 30V22.6035H103.646C104.63 22.6035 105.384 22.7767 105.908 23.123C106.437 23.4648 106.701 23.9684 106.701 24.6338C106.701 24.9756 106.599 25.2855 106.394 25.5635C106.188 25.8369 105.885 26.0465 105.484 26.1924C105.931 26.2972 106.289 26.5023 106.558 26.8076C106.831 27.113 106.968 27.4775 106.968 27.9014C106.968 28.5804 106.717 29.0999 106.216 29.46C105.719 29.82 105.015 30 104.104 30H100.761ZM102.025 26.7529V28.9814H104.117C104.646 28.9814 105.04 28.8835 105.3 28.6875C105.564 28.4915 105.696 28.2158 105.696 27.8604C105.696 27.1221 105.154 26.7529 104.069 26.7529H102.025ZM102.025 25.7412H103.659C104.844 25.7412 105.437 25.3949 105.437 24.7021C105.437 24.0094 104.876 23.6517 103.755 23.6289H102.025V25.7412ZM108.308 26.2334C108.308 25.5088 108.449 24.8571 108.731 24.2783C109.019 23.6995 109.415 23.2529 109.921 22.9385C110.431 22.624 111.012 22.4668 111.664 22.4668C112.671 22.4668 113.485 22.8154 114.104 23.5127C114.729 24.21 115.041 25.1374 115.041 26.2949V26.3838C115.041 27.1038 114.902 27.751 114.624 28.3252C114.351 28.8949 113.956 29.3392 113.441 29.6582C112.931 29.9772 112.343 30.1367 111.678 30.1367C110.675 30.1367 109.862 29.7881 109.237 29.0908C108.618 28.3936 108.308 27.4707 108.308 26.3223V26.2334ZM109.579 26.3838C109.579 27.2041 109.768 27.8626 110.146 28.3594C110.529 28.8561 111.04 29.1045 111.678 29.1045C112.32 29.1045 112.831 28.8538 113.209 28.3525C113.587 27.8467 113.776 27.1403 113.776 26.2334C113.776 25.4222 113.583 24.766 113.195 24.2646C112.812 23.7588 112.302 23.5059 111.664 23.5059C111.04 23.5059 110.536 23.7542 110.153 24.251C109.771 24.7477 109.579 25.4587 109.579 26.3838ZM122.67 30H121.405V26.8418H118.008V30H116.736V22.6035H118.008V25.8096H121.405V22.6035H122.67V30ZM124.372 26.2334C124.372 25.5088 124.513 24.8571 124.796 24.2783C125.083 23.6995 125.479 23.2529 125.985 22.9385C126.496 22.624 127.077 22.4668 127.729 22.4668C128.736 22.4668 129.549 22.8154 130.169 23.5127C130.793 24.21 131.105 25.1374 131.105 26.2949V26.3838C131.105 27.1038 130.966 27.751 130.688 28.3252C130.415 28.8949 130.021 29.3392 129.506 29.6582C128.995 29.9772 128.408 30.1367 127.742 30.1367C126.74 30.1367 125.926 29.7881 125.302 29.0908C124.682 28.3936 124.372 27.4707 124.372 26.3223V26.2334ZM125.644 26.3838C125.644 27.2041 125.833 27.8626 126.211 28.3594C126.594 28.8561 127.104 29.1045 127.742 29.1045C128.385 29.1045 128.895 28.8538 129.273 28.3525C129.652 27.8467 129.841 27.1403 129.841 26.2334C129.841 25.4222 129.647 24.766 129.26 24.2646C128.877 23.7588 128.367 23.5059 127.729 23.5059C127.104 23.5059 126.601 23.7542 126.218 24.251C125.835 24.7477 125.644 25.4587 125.644 26.3838ZM134.995 26.8486H134.072V30H132.801V22.6035H134.072V25.7344H134.899L137.388 22.6035H138.919L135.993 26.1582L139.165 30H137.559L134.995 26.8486Z" fill="white"/>
<circle cx="18.2364" cy="5.76298" r="2.76298" fill="white"/>
<circle cx="10.5003" cy="5.76298" r="2.76298" fill="white"/>
<circle cx="2.76298" cy="5.76298" r="2.76298" fill="white"/>
<circle cx="18.2376" cy="13.4995" r="2.76298" fill="white"/>
<circle cx="10.5008" cy="13.4995" r="2.76298" fill="white"/>
<circle cx="2.76346" cy="13.4994" r="2.76298" fill="white"/>
<circle cx="18.2376" cy="21.2361" r="2.76298" fill="white"/>
<circle cx="10.5008" cy="21.2361" r="2.76298" fill="white"/>
<circle cx="10.5008" cy="28.9728" r="2.76298" fill="white"/>
<circle cx="2.76346" cy="21.2366" r="2.76298" fill="white"/>
</svg>
