<svg width="161" height="35" viewBox="0 0 161 35" fill="none" xmlns="http://www.w3.org/2000/svg">
<path d="M35.8438 14H33.8613V6.60352H35.8438V14ZM33.7451 4.68945C33.7451 4.39323 33.8431 4.14941 34.0391 3.95801C34.2396 3.7666 34.5107 3.6709 34.8525 3.6709C35.1898 3.6709 35.4587 3.7666 35.6592 3.95801C35.8597 4.14941 35.96 4.39323 35.96 4.68945C35.96 4.99023 35.8574 5.23633 35.6523 5.42773C35.4518 5.61914 35.1852 5.71484 34.8525 5.71484C34.5199 5.71484 34.251 5.61914 34.0459 5.42773C33.8454 5.23633 33.7451 4.99023 33.7451 4.68945ZM39.2959 6.60352L39.3574 7.45801C39.8861 6.7972 40.5947 6.4668 41.4834 6.4668C42.2673 6.4668 42.8506 6.69694 43.2334 7.15723C43.6162 7.61751 43.8122 8.30566 43.8213 9.22168V14H41.8457V9.26953C41.8457 8.85026 41.7546 8.5472 41.5723 8.36035C41.39 8.16895 41.0869 8.07324 40.6631 8.07324C40.1071 8.07324 39.6901 8.31022 39.4121 8.78418V14H37.4365V6.60352H39.2959ZM45.8652 14V8.05273H44.7646V6.60352H45.8652V5.97461C45.8652 5.14518 46.1022 4.5026 46.5762 4.04688C47.0547 3.58659 47.7223 3.35645 48.5791 3.35645C48.8525 3.35645 49.1875 3.40202 49.584 3.49316L49.5635 5.02441C49.3994 4.9834 49.1989 4.96289 48.9619 4.96289C48.2191 4.96289 47.8477 5.31152 47.8477 6.00879V6.60352H49.3174V8.05273H47.8477V14H45.8652ZM50.0352 10.2334C50.0352 9.49967 50.1764 8.8457 50.459 8.27148C50.7415 7.69727 51.1471 7.25293 51.6758 6.93848C52.209 6.62402 52.8265 6.4668 53.5283 6.4668C54.5264 6.4668 55.3398 6.77214 55.9688 7.38281C56.6022 7.99349 56.9554 8.82292 57.0283 9.87109L57.042 10.377C57.042 11.5117 56.7253 12.4232 56.0918 13.1113C55.4583 13.7949 54.6084 14.1367 53.542 14.1367C52.4756 14.1367 51.6234 13.7949 50.9854 13.1113C50.3519 12.4277 50.0352 11.498 50.0352 10.3223V10.2334ZM52.0107 10.377C52.0107 11.0788 52.1429 11.6165 52.4072 11.9902C52.6715 12.3594 53.0498 12.5439 53.542 12.5439C54.0205 12.5439 54.3942 12.3617 54.6631 11.9971C54.932 11.6279 55.0664 11.04 55.0664 10.2334C55.0664 9.54525 54.932 9.01204 54.6631 8.63379C54.3942 8.25553 54.016 8.06641 53.5283 8.06641C53.0452 8.06641 52.6715 8.25553 52.4072 8.63379C52.1429 9.00749 52.0107 9.58854 52.0107 10.377ZM69.4561 10.3359C69.4059 11.5026 69.1165 12.43 68.5879 13.1182C68.0638 13.8018 67.3574 14.1436 66.4688 14.1436C66.0768 14.1436 65.7373 14.0592 65.4502 13.8906C65.1676 13.722 64.9535 13.4805 64.8076 13.166C64.3519 13.804 63.7572 14.123 63.0234 14.123C62.3581 14.123 61.8431 13.8428 61.4785 13.2822C61.1139 12.7217 60.9772 11.9811 61.0684 11.0605C61.1504 10.3086 61.3395 9.64095 61.6357 9.05762C61.9365 8.46973 62.3148 8.01855 62.7705 7.7041C63.2262 7.38965 63.7184 7.23242 64.2471 7.23242C64.8988 7.23242 65.4548 7.38281 65.915 7.68359L66.3457 7.97754L65.9971 11.9287C65.9515 12.2887 65.9902 12.5645 66.1133 12.7559C66.2409 12.9473 66.4414 13.043 66.7148 13.043C67.1341 13.043 67.485 12.7992 67.7676 12.3115C68.0501 11.8193 68.2051 11.1768 68.2324 10.3838C68.3099 8.79329 67.9886 7.57194 67.2686 6.71973C66.5531 5.86296 65.4912 5.43457 64.083 5.43457C63.2035 5.43457 62.4196 5.65788 61.7314 6.10449C61.0433 6.55111 60.501 7.18685 60.1045 8.01172C59.708 8.83203 59.4847 9.77311 59.4346 10.835C59.3617 12.4482 59.6852 13.6947 60.4053 14.5742C61.1253 15.4583 62.2031 15.9004 63.6387 15.9004C64.0169 15.9004 64.4134 15.8571 64.8281 15.7705C65.2428 15.6885 65.6006 15.5768 65.9014 15.4355L66.1611 16.4883C65.8831 16.6706 65.5072 16.8164 65.0332 16.9258C64.5638 17.0397 64.0898 17.0967 63.6113 17.0967C62.4082 17.0967 61.3828 16.8529 60.5352 16.3652C59.6875 15.8822 59.054 15.1667 58.6348 14.2188C58.2201 13.2754 58.04 12.1475 58.0947 10.835C58.1494 9.57715 58.4365 8.44922 58.9561 7.45117C59.4756 6.45312 60.182 5.68294 61.0752 5.14062C61.973 4.59375 62.9847 4.32031 64.1104 4.32031C65.2542 4.32031 66.2386 4.56641 67.0635 5.05859C67.8883 5.54622 68.5059 6.24577 68.916 7.15723C69.3262 8.06868 69.5062 9.12826 69.4561 10.3359ZM62.5859 11.0605C62.5358 11.6621 62.5882 12.1201 62.7432 12.4346C62.8981 12.7445 63.1488 12.8994 63.4951 12.8994C63.7184 12.8994 63.9303 12.8014 64.1309 12.6055C64.3314 12.4095 64.4977 12.127 64.6299 11.7578L64.917 8.52441C64.7393 8.46517 64.557 8.43555 64.3701 8.43555C63.846 8.43555 63.4382 8.65885 63.1465 9.10547C62.8594 9.55208 62.6725 10.2038 62.5859 11.0605ZM72.6484 6.60352L72.71 7.43066C73.234 6.78809 73.9427 6.4668 74.8359 6.4668C75.7884 6.4668 76.4424 6.84277 76.7979 7.59473C77.3174 6.84277 78.0579 6.4668 79.0195 6.4668C79.8216 6.4668 80.4186 6.7015 80.8105 7.1709C81.2025 7.63574 81.3984 8.33757 81.3984 9.27637V14H79.416V9.2832C79.416 8.86393 79.334 8.55859 79.1699 8.36719C79.0059 8.17122 78.7165 8.07324 78.3018 8.07324C77.7093 8.07324 77.2992 8.35579 77.0713 8.9209L77.0781 14H75.1025V9.29004C75.1025 8.86165 75.0182 8.55176 74.8496 8.36035C74.681 8.16895 74.3939 8.07324 73.9883 8.07324C73.4277 8.07324 73.0221 8.30566 72.7715 8.77051V14H70.7959V6.60352H72.6484ZM82.6152 10.2334C82.6152 9.49967 82.7565 8.8457 83.0391 8.27148C83.3216 7.69727 83.7272 7.25293 84.2559 6.93848C84.7891 6.62402 85.4066 6.4668 86.1084 6.4668C87.1064 6.4668 87.9199 6.77214 88.5488 7.38281C89.1823 7.99349 89.5355 8.82292 89.6084 9.87109L89.6221 10.377C89.6221 11.5117 89.3053 12.4232 88.6719 13.1113C88.0384 13.7949 87.1885 14.1367 86.1221 14.1367C85.0557 14.1367 84.2035 13.7949 83.5654 13.1113C82.932 12.4277 82.6152 11.498 82.6152 10.3223V10.2334ZM84.5908 10.377C84.5908 11.0788 84.723 11.6165 84.9873 11.9902C85.2516 12.3594 85.6299 12.5439 86.1221 12.5439C86.6006 12.5439 86.9743 12.3617 87.2432 11.9971C87.512 11.6279 87.6465 11.04 87.6465 10.2334C87.6465 9.54525 87.512 9.01204 87.2432 8.63379C86.9743 8.25553 86.596 8.06641 86.1084 8.06641C85.6253 8.06641 85.2516 8.25553 84.9873 8.63379C84.723 9.00749 84.5908 9.58854 84.5908 10.377ZM97.4971 10.3701C97.4971 11.5094 97.2373 12.4232 96.7178 13.1113C96.2028 13.7949 95.5055 14.1367 94.626 14.1367C93.8786 14.1367 93.2747 13.877 92.8145 13.3574V16.8438H90.8389V6.60352H92.6709L92.7393 7.32812C93.2178 6.75391 93.8421 6.4668 94.6123 6.4668C95.5238 6.4668 96.2324 6.80404 96.7383 7.47852C97.2441 8.15299 97.4971 9.08268 97.4971 10.2676V10.3701ZM95.5215 10.2266C95.5215 9.53841 95.3984 9.00749 95.1523 8.63379C94.9108 8.26009 94.5576 8.07324 94.0928 8.07324C93.473 8.07324 93.0469 8.31022 92.8145 8.78418V11.8125C93.056 12.3001 93.4867 12.5439 94.1064 12.5439C95.0498 12.5439 95.5215 11.7715 95.5215 10.2266ZM102.132 14.1367C101.047 14.1367 100.163 13.804 99.4795 13.1387C98.8005 12.4733 98.4609 11.5869 98.4609 10.4795V10.2881C98.4609 9.54525 98.6045 8.88216 98.8916 8.29883C99.1787 7.71094 99.5843 7.25977 100.108 6.94531C100.637 6.6263 101.239 6.4668 101.913 6.4668C102.925 6.4668 103.72 6.78581 104.299 7.42383C104.882 8.06185 105.174 8.96647 105.174 10.1377V10.9443H100.464C100.528 11.4274 100.719 11.8148 101.038 12.1064C101.362 12.3981 101.77 12.5439 102.262 12.5439C103.023 12.5439 103.618 12.2682 104.046 11.7168L105.017 12.8037C104.72 13.223 104.319 13.5511 103.813 13.7881C103.308 14.0205 102.747 14.1367 102.132 14.1367ZM101.906 8.06641C101.514 8.06641 101.195 8.19857 100.949 8.46289C100.708 8.72721 100.553 9.10547 100.484 9.59766H103.232V9.44043C103.223 9.00293 103.105 8.66569 102.877 8.42871C102.649 8.18717 102.326 8.06641 101.906 8.06641ZM110.458 8.45605C110.189 8.4196 109.952 8.40137 109.747 8.40137C109 8.40137 108.51 8.6543 108.277 9.16016V14H106.302V6.60352H108.168L108.223 7.48535C108.619 6.80632 109.168 6.4668 109.87 6.4668C110.089 6.4668 110.294 6.49642 110.485 6.55566L110.458 8.45605ZM115.496 14C115.405 13.8223 115.339 13.6012 115.298 13.3369C114.819 13.8701 114.197 14.1367 113.432 14.1367C112.707 14.1367 112.105 13.9271 111.627 13.5078C111.153 13.0885 110.916 12.5599 110.916 11.9219C110.916 11.138 111.205 10.5365 111.784 10.1172C112.368 9.69792 113.208 9.486 114.307 9.48145H115.216V9.05762C115.216 8.71582 115.127 8.44238 114.949 8.2373C114.776 8.03223 114.5 7.92969 114.122 7.92969C113.789 7.92969 113.527 8.00944 113.336 8.16895C113.149 8.32845 113.056 8.5472 113.056 8.8252H111.08C111.08 8.39681 111.212 8.00033 111.477 7.63574C111.741 7.27116 112.115 6.98633 112.598 6.78125C113.081 6.57161 113.623 6.4668 114.225 6.4668C115.136 6.4668 115.858 6.69694 116.392 7.15723C116.929 7.61296 117.198 8.25553 117.198 9.08496V12.291C117.203 12.9928 117.301 13.5238 117.492 13.8838V14H115.496ZM113.862 12.626C114.154 12.626 114.423 12.5622 114.669 12.4346C114.915 12.3024 115.097 12.127 115.216 11.9082V10.6367H114.478C113.489 10.6367 112.962 10.9785 112.898 11.6621L112.892 11.7783C112.892 12.0244 112.978 12.2272 113.151 12.3867C113.325 12.5462 113.562 12.626 113.862 12.626ZM121.081 4.78516V6.60352H122.346V8.05273H121.081V11.7441C121.081 12.0176 121.133 12.2135 121.238 12.332C121.343 12.4505 121.544 12.5098 121.84 12.5098C122.059 12.5098 122.252 12.4938 122.421 12.4619V13.959C122.034 14.0775 121.635 14.1367 121.225 14.1367C119.839 14.1367 119.133 13.4372 119.105 12.0381V8.05273H118.025V6.60352H119.105V4.78516H121.081ZM125.531 14H123.549V6.60352H125.531V14ZM123.433 4.68945C123.433 4.39323 123.531 4.14941 123.727 3.95801C123.927 3.7666 124.198 3.6709 124.54 3.6709C124.877 3.6709 125.146 3.7666 125.347 3.95801C125.547 4.14941 125.647 4.39323 125.647 4.68945C125.647 4.99023 125.545 5.23633 125.34 5.42773C125.139 5.61914 124.873 5.71484 124.54 5.71484C124.207 5.71484 123.938 5.61914 123.733 5.42773C123.533 5.23633 123.433 4.99023 123.433 4.68945ZM128.983 6.60352L129.045 7.45801C129.574 6.7972 130.282 6.4668 131.171 6.4668C131.955 6.4668 132.538 6.69694 132.921 7.15723C133.304 7.61751 133.5 8.30566 133.509 9.22168V14H131.533V9.26953C131.533 8.85026 131.442 8.5472 131.26 8.36035C131.077 8.16895 130.774 8.07324 130.351 8.07324C129.795 8.07324 129.378 8.31022 129.1 8.78418V14H127.124V6.60352H128.983ZM134.726 10.2471C134.726 9.1123 134.994 8.19857 135.532 7.50586C136.075 6.81315 136.804 6.4668 137.72 6.4668C138.531 6.4668 139.162 6.74479 139.613 7.30078L139.695 6.60352H141.486V13.7539C141.486 14.401 141.338 14.9639 141.042 15.4424C140.75 15.9209 140.338 16.2855 139.805 16.5361C139.271 16.7868 138.647 16.9121 137.932 16.9121C137.389 16.9121 136.861 16.8027 136.346 16.584C135.831 16.3698 135.441 16.0918 135.177 15.75L136.052 14.5469C136.544 15.0983 137.141 15.374 137.843 15.374C138.367 15.374 138.775 15.2327 139.066 14.9502C139.358 14.6722 139.504 14.2757 139.504 13.7607V13.3643C139.048 13.8792 138.449 14.1367 137.706 14.1367C136.817 14.1367 136.097 13.7904 135.546 13.0977C134.999 12.4004 134.726 11.4775 134.726 10.3291V10.2471ZM136.701 10.3906C136.701 11.0605 136.836 11.5869 137.104 11.9697C137.373 12.348 137.743 12.5371 138.212 12.5371C138.813 12.5371 139.244 12.3115 139.504 11.8604V8.75C139.24 8.29883 138.813 8.07324 138.226 8.07324C137.752 8.07324 137.378 8.26693 137.104 8.6543C136.836 9.04167 136.701 9.62044 136.701 10.3906ZM143.113 13.0293C143.113 12.7148 143.218 12.4596 143.428 12.2637C143.642 12.0677 143.909 11.9697 144.228 11.9697C144.551 11.9697 144.818 12.0677 145.027 12.2637C145.242 12.4596 145.349 12.7148 145.349 13.0293C145.349 13.3392 145.244 13.5921 145.034 13.7881C144.825 13.9795 144.556 14.0752 144.228 14.0752C143.904 14.0752 143.637 13.9795 143.428 13.7881C143.218 13.5921 143.113 13.3392 143.113 13.0293ZM149.771 11.0332L149.061 11.7441V14H147.085V3.5H149.061V9.31738L149.443 8.8252L151.337 6.60352H153.709L151.036 9.68652L153.941 14H151.672L149.771 11.0332ZM156.833 12.4072H160.449V14H154.311V12.7969L157.79 8.20312H154.413V6.60352H160.34V7.77246L156.833 12.4072ZM39.2617 23.7197C39.2617 23.1911 39.068 22.7718 38.6807 22.4619C38.2979 22.1475 37.7578 21.9902 37.0605 21.9902C36.4772 21.9902 35.9873 22.152 35.5908 22.4756C35.1989 22.7946 35.0029 23.1911 35.0029 23.665H33.6904C33.6904 23.1364 33.834 22.6624 34.1211 22.2432C34.4128 21.8239 34.8184 21.498 35.3379 21.2656C35.8574 21.0286 36.4316 20.9102 37.0605 20.9102C38.1725 20.9102 39.0361 21.1608 39.6514 21.6621C40.2666 22.1589 40.5742 22.8516 40.5742 23.7402C40.5742 24.2005 40.4329 24.6198 40.1504 24.998C39.8678 25.3763 39.4736 25.6748 38.9678 25.8936C40.139 26.2855 40.7246 27.0625 40.7246 28.2246C40.7246 29.1178 40.3919 29.8265 39.7266 30.3506C39.0612 30.8747 38.1725 31.1367 37.0605 31.1367C36.3997 31.1367 35.7982 31.0205 35.2559 30.7881C34.7181 30.5511 34.2988 30.2161 33.998 29.7832C33.6973 29.3503 33.5469 28.8353 33.5469 28.2383H34.8594C34.8594 28.7624 35.0667 29.1999 35.4814 29.5508C35.8962 29.8971 36.4225 30.0703 37.0605 30.0703C37.776 30.0703 38.3457 29.904 38.7695 29.5713C39.1979 29.2386 39.4121 28.7988 39.4121 28.252C39.4121 27.0853 38.6898 26.4906 37.2451 26.4678H36.0146V25.3877H37.2383C37.9036 25.374 38.4072 25.2236 38.749 24.9365C39.0908 24.6494 39.2617 24.2438 39.2617 23.7197ZM46.8359 31C46.763 30.8542 46.7038 30.5944 46.6582 30.2207C46.0703 30.8314 45.3685 31.1367 44.5527 31.1367C43.8236 31.1367 43.2243 30.9316 42.7549 30.5215C42.29 30.1068 42.0576 29.5827 42.0576 28.9492C42.0576 28.179 42.3493 27.582 42.9326 27.1582C43.5205 26.7298 44.3454 26.5156 45.4072 26.5156H46.6377V25.9346C46.6377 25.4925 46.5055 25.1416 46.2412 24.8818C45.9769 24.6175 45.5872 24.4854 45.0723 24.4854C44.6211 24.4854 44.2428 24.5993 43.9375 24.8271C43.6322 25.055 43.4795 25.3307 43.4795 25.6543H42.208C42.208 25.2852 42.3379 24.9297 42.5977 24.5879C42.862 24.2415 43.2174 23.9681 43.6641 23.7676C44.1152 23.5671 44.6097 23.4668 45.1475 23.4668C45.9997 23.4668 46.6673 23.681 47.1504 24.1094C47.6335 24.5332 47.8841 25.1188 47.9023 25.8662V29.2705C47.9023 29.9495 47.9889 30.4896 48.1621 30.8906V31H46.8359ZM44.7373 30.0361C45.1338 30.0361 45.5098 29.9336 45.8652 29.7285C46.2207 29.5234 46.4782 29.2568 46.6377 28.9287V27.4111H45.6465C44.097 27.4111 43.3223 27.8646 43.3223 28.7715C43.3223 29.168 43.4544 29.4779 43.7188 29.7012C43.9831 29.9245 44.3226 30.0361 44.7373 30.0361ZM52.1885 27.8486H51.2656V31H49.9941V23.6035H51.2656V26.7344H52.0928L54.5811 23.6035H56.1123L53.1865 27.1582L56.3584 31H54.752L52.1885 27.8486ZM62.0117 31C61.9388 30.8542 61.8796 30.5944 61.834 30.2207C61.2461 30.8314 60.5443 31.1367 59.7285 31.1367C58.9993 31.1367 58.4001 30.9316 57.9307 30.5215C57.4658 30.1068 57.2334 29.5827 57.2334 28.9492C57.2334 28.179 57.5251 27.582 58.1084 27.1582C58.6963 26.7298 59.5212 26.5156 60.583 26.5156H61.8135V25.9346C61.8135 25.4925 61.6813 25.1416 61.417 24.8818C61.1527 24.6175 60.763 24.4854 60.248 24.4854C59.7969 24.4854 59.4186 24.5993 59.1133 24.8271C58.8079 25.055 58.6553 25.3307 58.6553 25.6543H57.3838C57.3838 25.2852 57.5137 24.9297 57.7734 24.5879C58.0378 24.2415 58.3932 23.9681 58.8398 23.7676C59.291 23.5671 59.7855 23.4668 60.3232 23.4668C61.1755 23.4668 61.8431 23.681 62.3262 24.1094C62.8092 24.5332 63.0599 25.1188 63.0781 25.8662V29.2705C63.0781 29.9495 63.1647 30.4896 63.3379 30.8906V31H62.0117ZM59.9131 30.0361C60.3096 30.0361 60.6855 29.9336 61.041 29.7285C61.3965 29.5234 61.654 29.2568 61.8135 28.9287V27.4111H60.8223C59.2728 27.4111 58.498 27.8646 58.498 28.7715C58.498 29.168 58.6302 29.4779 58.8945 29.7012C59.1589 29.9245 59.4984 30.0361 59.9131 30.0361ZM69.1279 25.627C69.1279 25.2806 68.9958 25.0072 68.7314 24.8066C68.4671 24.6016 68.1048 24.499 67.6445 24.499C67.1979 24.499 66.8242 24.6152 66.5234 24.8477C66.2272 25.0801 66.0791 25.3535 66.0791 25.668H64.8213C64.8213 25.0254 65.0902 24.499 65.6279 24.0889C66.1657 23.6787 66.8379 23.4736 67.6445 23.4736C68.5104 23.4736 69.1849 23.6605 69.668 24.0342C70.151 24.4033 70.3926 24.932 70.3926 25.6201C70.3926 25.9528 70.2923 26.2581 70.0918 26.5361C69.8913 26.8141 69.6064 27.0352 69.2373 27.1992C70.0986 27.4909 70.5293 28.0651 70.5293 28.9219C70.5293 29.6009 70.2673 30.1387 69.7432 30.5352C69.2191 30.9316 68.5195 31.1299 67.6445 31.1299C66.7923 31.1299 66.0882 30.9225 65.5322 30.5078C64.9808 30.0885 64.7051 29.5234 64.7051 28.8125H65.9629C65.9629 29.1725 66.1224 29.4824 66.4414 29.7422C66.765 29.9974 67.166 30.125 67.6445 30.125C68.1276 30.125 68.5173 30.0133 68.8135 29.79C69.1097 29.5667 69.2578 29.2773 69.2578 28.9219C69.2578 28.5072 69.1325 28.2109 68.8818 28.0332C68.6357 27.8509 68.2507 27.7598 67.7266 27.7598H66.4619V26.6934H67.8359C68.6973 26.6706 69.1279 26.3151 69.1279 25.627ZM76.7363 31C76.6634 30.8542 76.6042 30.5944 76.5586 30.2207C75.9707 30.8314 75.2689 31.1367 74.4531 31.1367C73.724 31.1367 73.1247 30.9316 72.6553 30.5215C72.1904 30.1068 71.958 29.5827 71.958 28.9492C71.958 28.179 72.2497 27.582 72.833 27.1582C73.4209 26.7298 74.2458 26.5156 75.3076 26.5156H76.5381V25.9346C76.5381 25.4925 76.4059 25.1416 76.1416 24.8818C75.8773 24.6175 75.4876 24.4854 74.9727 24.4854C74.5215 24.4854 74.1432 24.5993 73.8379 24.8271C73.5326 25.055 73.3799 25.3307 73.3799 25.6543H72.1084C72.1084 25.2852 72.2383 24.9297 72.498 24.5879C72.7624 24.2415 73.1178 23.9681 73.5645 23.7676C74.0156 23.5671 74.5101 23.4668 75.0479 23.4668C75.9001 23.4668 76.5677 23.681 77.0508 24.1094C77.5339 24.5332 77.7845 25.1188 77.8027 25.8662V29.2705C77.8027 29.9495 77.8893 30.4896 78.0625 30.8906V31H76.7363ZM74.6377 30.0361C75.0342 30.0361 75.4102 29.9336 75.7656 29.7285C76.1211 29.5234 76.3786 29.2568 76.5381 28.9287V27.4111H75.5469C73.9974 27.4111 73.2227 27.8646 73.2227 28.7715C73.2227 29.168 73.3548 29.4779 73.6191 29.7012C73.8835 29.9245 74.223 30.0361 74.6377 30.0361ZM85.1719 24.6289H82.6904V31H81.4258V24.6289H78.9922V23.6035H85.1719V24.6289ZM87.7832 26.1533H89.7041C90.5426 26.1624 91.2057 26.3812 91.6934 26.8096C92.181 27.238 92.4248 27.819 92.4248 28.5527C92.4248 29.291 92.1742 29.8835 91.6729 30.3301C91.1715 30.7767 90.4971 31 89.6494 31H86.5186V23.6035H87.7832V26.1533ZM87.7832 27.1855V29.9678H89.6631C90.137 29.9678 90.5039 29.847 90.7637 29.6055C91.0234 29.3594 91.1533 29.0244 91.1533 28.6006C91.1533 28.1904 91.0257 27.8555 90.7705 27.5957C90.5199 27.3314 90.1667 27.1947 89.7109 27.1855H87.7832ZM101.544 25.627C101.544 25.2806 101.412 25.0072 101.147 24.8066C100.883 24.6016 100.521 24.499 100.061 24.499C99.6139 24.499 99.2402 24.6152 98.9395 24.8477C98.6432 25.0801 98.4951 25.3535 98.4951 25.668H97.2373C97.2373 25.0254 97.5062 24.499 98.0439 24.0889C98.5817 23.6787 99.2539 23.4736 100.061 23.4736C100.926 23.4736 101.601 23.6605 102.084 24.0342C102.567 24.4033 102.809 24.932 102.809 25.6201C102.809 25.9528 102.708 26.2581 102.508 26.5361C102.307 26.8141 102.022 27.0352 101.653 27.1992C102.515 27.4909 102.945 28.0651 102.945 28.9219C102.945 29.6009 102.683 30.1387 102.159 30.5352C101.635 30.9316 100.936 31.1299 100.061 31.1299C99.2083 31.1299 98.5042 30.9225 97.9482 30.5078C97.3968 30.0885 97.1211 29.5234 97.1211 28.8125H98.3789C98.3789 29.1725 98.5384 29.4824 98.8574 29.7422C99.181 29.9974 99.582 30.125 100.061 30.125C100.544 30.125 100.933 30.0133 101.229 29.79C101.526 29.5667 101.674 29.2773 101.674 28.9219C101.674 28.5072 101.549 28.2109 101.298 28.0332C101.052 27.8509 100.667 27.7598 100.143 27.7598H98.8779V26.6934H100.252C101.113 26.6706 101.544 26.3151 101.544 25.627ZM104.702 31V23.6035H107.587C108.571 23.6035 109.326 23.7767 109.85 24.123C110.378 24.4648 110.643 24.9684 110.643 25.6338C110.643 25.9756 110.54 26.2855 110.335 26.5635C110.13 26.8369 109.827 27.0465 109.426 27.1924C109.872 27.2972 110.23 27.5023 110.499 27.8076C110.772 28.113 110.909 28.4775 110.909 28.9014C110.909 29.5804 110.659 30.0999 110.157 30.46C109.66 30.82 108.956 31 108.045 31H104.702ZM105.967 27.7529V29.9814H108.059C108.587 29.9814 108.981 29.8835 109.241 29.6875C109.506 29.4915 109.638 29.2158 109.638 28.8604C109.638 28.1221 109.095 27.7529 108.011 27.7529H105.967ZM105.967 26.7412H107.601C108.785 26.7412 109.378 26.3949 109.378 25.7021C109.378 25.0094 108.817 24.6517 107.696 24.6289H105.967V26.7412ZM112.249 27.2334C112.249 26.5088 112.39 25.8571 112.673 25.2783C112.96 24.6995 113.356 24.2529 113.862 23.9385C114.373 23.624 114.954 23.4668 115.605 23.4668C116.613 23.4668 117.426 23.8154 118.046 24.5127C118.67 25.21 118.982 26.1374 118.982 27.2949V27.3838C118.982 28.1038 118.843 28.751 118.565 29.3252C118.292 29.8949 117.898 30.3392 117.383 30.6582C116.872 30.9772 116.285 31.1367 115.619 31.1367C114.617 31.1367 113.803 30.7881 113.179 30.0908C112.559 29.3936 112.249 28.4707 112.249 27.3223V27.2334ZM113.521 27.3838C113.521 28.2041 113.71 28.8626 114.088 29.3594C114.471 29.8561 114.981 30.1045 115.619 30.1045C116.262 30.1045 116.772 29.8538 117.15 29.3525C117.529 28.8467 117.718 28.1403 117.718 27.2334C117.718 26.4222 117.524 25.766 117.137 25.2646C116.754 24.7588 116.243 24.5059 115.605 24.5059C114.981 24.5059 114.478 24.7542 114.095 25.251C113.712 25.7477 113.521 26.4587 113.521 27.3838ZM126.611 31H125.347V27.8418H121.949V31H120.678V23.6035H121.949V26.8096H125.347V23.6035H126.611V31ZM128.313 27.2334C128.313 26.5088 128.455 25.8571 128.737 25.2783C129.024 24.6995 129.421 24.2529 129.927 23.9385C130.437 23.624 131.018 23.4668 131.67 23.4668C132.677 23.4668 133.491 23.8154 134.11 24.5127C134.735 25.21 135.047 26.1374 135.047 27.2949V27.3838C135.047 28.1038 134.908 28.751 134.63 29.3252C134.356 29.8949 133.962 30.3392 133.447 30.6582C132.937 30.9772 132.349 31.1367 131.684 31.1367C130.681 31.1367 129.868 30.7881 129.243 30.0908C128.623 29.3936 128.313 28.4707 128.313 27.3223V27.2334ZM129.585 27.3838C129.585 28.2041 129.774 28.8626 130.152 29.3594C130.535 29.8561 131.046 30.1045 131.684 30.1045C132.326 30.1045 132.837 29.8538 133.215 29.3525C133.593 28.8467 133.782 28.1403 133.782 27.2334C133.782 26.4222 133.589 25.766 133.201 25.2646C132.818 24.7588 132.308 24.5059 131.67 24.5059C131.046 24.5059 130.542 24.7542 130.159 25.251C129.776 25.7477 129.585 26.4587 129.585 27.3838ZM138.937 27.8486H138.014V31H136.742V23.6035H138.014V26.7344H138.841L141.329 23.6035H142.86L139.935 27.1582L143.106 31H141.5L138.937 27.8486Z" fill="white"/>
<path d="M13.9199 10.6073L20.9995 15.0829V5.94263L13.9199 10.6073Z" fill="white"/>
<path d="M0 5.94263V15.0829L7.07963 10.6073L0 5.94263Z" fill="white"/>
<path d="M19.6865 3.28125H1.31146C0.656518 3.28125 0.136768 3.7695 0.0383301 4.39819L10.499 11.2901L20.9596 4.39819C20.8611 3.7695 20.3414 3.28125 19.6865 3.28125Z" fill="white"/>
<path d="M12.7186 11.4005L10.8614 12.6237C10.7512 12.6959 10.6265 12.7314 10.5005 12.7314C10.3745 12.7314 10.2498 12.6959 10.1395 12.6237L8.28236 11.3992L0.0424805 16.6111C0.143543 17.2345 0.660668 17.7189 1.31298 17.7189H19.688C20.3403 17.7189 20.8574 17.2345 20.9585 16.6111L12.7186 11.4005Z" fill="white"/>
</svg>
