<svg width="72" height="72" viewBox="0 0 72 72" fill="none" xmlns="http://www.w3.org/2000/svg">
<g clip-path="url(#clip0_512_440)">
<path d="M67.5496 31.2401C67.5496 29.7278 66.3195 28.4978 64.8073 28.4978H47.5321C46.02 28.4978 44.7898 29.728 44.7898 31.2401V34.7638C44.7898 35.4004 45.0097 35.9855 45.3749 36.4514C45.0096 36.9173 44.7898 37.5023 44.7898 38.1391V41.6626C44.7898 41.9178 44.8275 42.164 44.893 42.3986C44.6583 42.3331 44.4122 42.2954 44.157 42.2954H37.9804C37.398 42.2954 36.9257 42.7676 36.9257 43.3501C36.9257 43.9325 37.398 44.4047 37.9804 44.4047H44.157C44.4999 44.4047 44.7898 44.6946 44.7898 45.0376V48.5612C44.7898 48.9042 44.4999 49.194 44.157 49.194H26.8816C26.5386 49.194 26.2488 48.9042 26.2488 48.5612V45.0376C26.2488 44.6946 26.5386 44.4047 26.8816 44.4047H33.0583C33.6407 44.4047 34.113 43.9325 34.113 43.3501C34.113 42.7676 33.6407 42.2954 33.0583 42.2954H26.8816C25.3695 42.2954 24.1393 43.5257 24.1393 45.0377V48.5613C24.1393 49.1979 24.3592 49.7831 24.7244 50.249C24.3591 50.7149 24.1393 51.2999 24.1393 51.9366V55.4603C24.1393 55.7155 24.177 55.9617 24.2425 56.1963C24.0078 56.1308 23.7617 56.0931 23.5065 56.0931H6.2311C4.71896 56.0931 3.48877 57.3234 3.48877 58.8354V62.3589C3.48877 62.9955 3.70871 63.5806 4.07391 64.0465C3.70857 64.5124 3.48877 65.0974 3.48877 65.7342V69.2578C3.48877 70.77 4.7191 72.0001 6.2311 72.0001H23.5062C24.1428 72.0001 24.7279 71.7802 25.1938 71.415C25.6597 71.7803 26.2447 72.0001 26.8815 72.0001H44.1567C44.7933 72.0001 45.3784 71.7802 45.8443 71.415C46.3102 71.7803 46.8952 72.0001 47.532 72.0001H64.8072C66.3193 72.0001 67.5495 70.77 67.5495 69.2578V65.7342C67.5495 65.0976 67.3296 64.5124 66.9644 64.0465C67.3297 63.5806 67.5495 62.9956 67.5495 62.3589V58.8354C67.5495 58.1988 67.3296 57.6136 66.9644 57.1478C67.3297 56.6819 67.5495 56.0969 67.5495 55.4601V51.9365C67.5495 51.2999 67.3296 50.7147 66.9644 50.2488C67.3297 49.7829 67.5495 49.1979 67.5495 48.5612V45.0376C67.5495 44.4009 67.3296 43.8158 66.9644 43.3499C67.3297 42.884 67.5495 42.299 67.5495 41.6623V38.1389C67.5495 37.5023 67.3296 36.9172 66.9644 36.4513C67.3297 35.9854 67.5495 35.4004 67.5495 34.7636V31.2401H67.5496ZM24.1391 69.2577C24.1393 69.6007 23.8494 69.8905 23.5065 69.8905H6.2311C5.88811 69.8905 5.59829 69.6007 5.59829 69.2577V65.734C5.59829 65.3911 5.88811 65.1012 6.2311 65.1012H23.5062C23.8492 65.1012 24.139 65.3911 24.139 65.734V69.2577H24.1391ZM24.1391 62.3589C24.1391 62.7019 23.8493 62.9917 23.5063 62.9917H6.2311C5.88811 62.9917 5.59829 62.7019 5.59829 62.3589V58.8353C5.59829 58.4923 5.88811 58.2024 6.2311 58.2024H23.5062C23.8492 58.2024 24.139 58.4923 24.139 58.8353V62.3589H24.1391ZM44.7898 69.2577C44.7898 69.6007 44.4999 69.8905 44.157 69.8905H26.8816C26.5386 69.8905 26.2488 69.6007 26.2488 69.2577V65.734C26.2488 65.3911 26.5386 65.1012 26.8816 65.1012H44.1568C44.4998 65.1012 44.7896 65.3911 44.7896 65.734V69.2577H44.7898ZM44.7898 62.3589C44.7898 62.7019 44.4999 62.9917 44.157 62.9917H26.8816C26.5385 62.9917 26.2488 62.7019 26.2488 62.3589V58.8353C26.2488 58.4923 26.5386 58.2024 26.8816 58.2024H44.1568C44.4998 58.2024 44.7896 58.4923 44.7896 58.8353V62.3589H44.7898ZM44.7898 55.4601C44.7898 55.8031 44.4999 56.0929 44.157 56.0929H26.8816C26.5386 56.0929 26.2488 55.8031 26.2488 55.4601V51.9365C26.2488 51.5935 26.5386 51.3037 26.8816 51.3037H44.1568C44.4998 51.3037 44.7896 51.5935 44.7896 51.9365V55.4601H44.7898ZM46.8993 38.1389C46.8993 37.7959 47.1891 37.5061 47.5321 37.5061H64.8073C65.1503 37.5061 65.44 37.7958 65.44 38.1389V41.6624C65.44 42.0054 65.1502 42.2952 64.8072 42.2952H47.5321C47.1891 42.2952 46.8993 42.0054 46.8993 41.6624V38.1389ZM46.8993 45.0377C46.8993 44.6947 47.1891 44.4049 47.5321 44.4049H64.8073C65.1503 44.4049 65.44 44.6946 65.44 45.0377V48.5613C65.44 48.9043 65.1502 49.1941 64.8072 49.1941H47.5321C47.1891 49.1941 46.8993 48.9043 46.8993 48.5613V45.0377ZM46.8993 51.9365C46.8993 51.5935 47.1891 51.3037 47.5321 51.3037H64.8073C65.1503 51.3037 65.44 51.5933 65.44 51.9365V55.4601C65.44 55.8031 65.1502 56.0929 64.8072 56.0929H47.5321C47.1891 56.0929 46.8993 55.8031 46.8993 55.4601V51.9365ZM46.8993 58.8353C46.8993 58.4923 47.1891 58.2024 47.5321 58.2024H64.8073C65.1503 58.2024 65.44 58.4921 65.44 58.8353V62.3589C65.44 62.7019 65.1502 62.9917 64.8072 62.9917H47.5321C47.1891 62.9917 46.8993 62.7019 46.8993 62.3589V58.8353ZM65.4403 69.2577C65.4401 69.6007 65.1503 69.8905 64.8073 69.8905H47.5321C47.1891 69.8905 46.8993 69.6007 46.8993 69.2577V65.734C46.8993 65.3911 47.1891 65.1012 47.5321 65.1012H64.8073C65.1503 65.1012 65.4401 65.3911 65.4401 65.734V69.2577H65.4403ZM65.4403 34.7638C65.4403 35.1068 65.1504 35.3966 64.8075 35.3966H47.5321C47.1891 35.3966 46.8993 35.1068 46.8993 34.7638V31.2401C46.8993 30.8971 47.1891 30.6073 47.5321 30.6073H64.8073C65.1503 30.6073 65.4401 30.8971 65.4401 31.2401V34.7638H65.4403Z" fill="white"/>
<path d="M40.1365 16.9866H35.6361C35.0536 16.9866 34.5814 17.4588 34.5814 18.0413C34.5814 18.6237 35.0536 19.0959 35.6361 19.0959H37.5704L5.42855 51.2378C5.01666 51.6497 5.01666 52.3175 5.42855 52.7294C5.63456 52.9354 5.90442 53.0385 6.17442 53.0385C6.44428 53.0385 6.71428 52.9355 6.92016 52.7295L39.0817 20.568V22.5418C39.0817 23.1243 39.5539 23.5965 40.1363 23.5965C40.7188 23.5965 41.191 23.1243 41.191 22.5418V18.0414C41.1912 17.4589 40.719 16.9866 40.1365 16.9866Z" fill="white"/>
<path d="M67.4485 14.5957C66.8887 14.4367 66.305 14.7617 66.1456 15.3221C64.8855 19.7575 60.7833 22.8554 56.1696 22.8554C50.4499 22.8554 45.7966 18.2021 45.7966 12.4824C45.7966 6.76266 50.4501 2.10952 56.1697 2.10952C61.3066 2.10952 65.6151 5.78658 66.4142 10.8525C66.5051 11.4279 67.0458 11.8211 67.6205 11.73C68.196 11.6393 68.5887 11.0992 68.498 10.5237C68.0399 7.61864 66.5549 4.95577 64.3167 3.02555C62.054 1.07452 59.1608 0 56.1697 0C49.2868 0 43.6873 5.59955 43.6873 12.4824C43.6873 19.3653 49.2868 24.9649 56.1697 24.9649C61.7217 24.9649 66.6586 21.2366 68.175 15.8985C68.3342 15.3383 68.0089 14.7548 67.4485 14.5957Z" fill="white"/>
<path d="M56.0992 4.323C51.5999 4.323 47.9395 7.98347 47.9395 12.4826C47.9395 16.9818 51.5999 20.6421 56.0992 20.6421C60.5985 20.6421 64.2587 16.9816 64.2587 12.4826C64.2587 7.98333 60.5985 4.323 56.0992 4.323ZM56.0994 18.5326C52.7633 18.5326 50.0491 15.8185 50.0491 12.4825C50.0491 9.14658 52.7632 6.43237 56.0994 6.43237C59.4353 6.43237 62.1495 9.14644 62.1495 12.4825C62.1493 15.8185 59.4353 18.5326 56.0994 18.5326Z" fill="white"/>
<path d="M56.616 11.7138V9.62242C57.0599 9.65814 57.2896 9.76347 57.7687 10.0027C58.0092 10.1235 58.3078 10.0773 58.4994 9.75222C58.6543 9.48897 58.758 9.06892 58.44 8.80427C57.9874 8.42852 57.1921 8.30941 56.6159 8.30941V7.99736C56.6159 7.81961 56.3962 7.69727 56.212 7.69727C56.0081 7.69727 55.808 7.82144 55.808 7.99427V8.32698C54.4335 8.50811 53.5026 9.24709 53.5026 10.6442C53.5026 12.0752 54.537 12.5476 55.808 13.0327V15.3973C55.1789 15.3215 54.8786 15.0749 54.287 14.6309C53.9914 14.4094 53.7022 14.4933 53.4848 14.798C53.2067 15.1899 53.2454 15.5315 53.4789 15.8465C53.9274 16.4515 54.903 16.8054 55.8081 16.8054V17.1414C55.8081 17.3219 56.0166 17.4412 56.2121 17.4412C56.3963 17.4412 56.616 17.32 56.616 17.1442V16.7759C57.8162 16.5904 58.8619 15.8309 58.8619 14.2567C58.8618 12.814 57.9549 12.2008 56.616 11.7138ZM55.903 11.4525C55.1889 11.1672 54.9524 10.9364 54.9524 10.4901C54.9524 9.97286 55.39 9.73928 55.903 9.65828V11.4525ZM56.5209 15.3858V13.3182C57.2602 13.642 57.4121 13.9945 57.4121 14.4113C57.4121 14.9594 57.0574 15.2722 56.5209 15.3858Z" fill="white"/>
</g>
<defs>
<clipPath id="clip0_512_440">
<rect width="72" height="72" fill="white"/>
</clipPath>
</defs>
</svg>
