<svg width="84" height="84" viewBox="0 0 84 84" fill="none" xmlns="http://www.w3.org/2000/svg">
<g clip-path="url(#clip0_512_514)">
<path d="M58.1887 29.6647H54.4622C54.2346 28.9425 53.9452 28.2432 53.5959 27.5724L56.2308 24.9374C56.5601 24.6081 56.7413 24.1702 56.7413 23.7045C56.7413 23.2385 56.5601 22.8006 56.2308 22.4714L53.1298 19.3703C52.45 18.6909 51.3439 18.6906 50.6638 19.3704L48.0288 22.0054C47.358 21.6562 46.6586 21.3666 45.9365 21.1392V17.4125C45.9364 16.4511 45.1541 15.6687 44.1926 15.6687H39.807C38.8456 15.6687 38.0634 16.451 38.0634 17.4125V21.1392C37.3412 21.3667 36.6419 21.6562 35.9709 22.0054L33.3357 19.3703C32.6559 18.6907 31.5498 18.6909 30.8699 19.3704L27.7691 22.4712C27.4397 22.8005 27.2582 23.2384 27.2582 23.7043C27.2582 24.1701 27.4397 24.608 27.769 24.9372L30.404 27.5722C30.0547 28.2431 29.7651 28.9425 29.5377 29.6645H25.811C24.8496 29.6645 24.0674 30.4468 24.0674 31.4083V35.7939C24.0674 36.7553 24.8496 37.5375 25.811 37.5375H29.5377C29.7653 38.2596 30.0547 38.9591 30.404 39.6298L27.769 42.2648C27.0891 42.9447 27.0891 44.051 27.769 44.7308L30.8699 47.8318C31.5498 48.5118 32.6562 48.5117 33.3359 47.8318L35.9709 45.1968C36.6418 45.5461 37.3413 45.8356 38.0634 46.063V49.7897C38.0634 50.7511 38.8456 51.5333 39.807 51.5333H44.1926C45.154 51.5333 45.9364 50.7511 45.9364 49.7897V46.063C46.6582 45.8356 47.3578 45.5461 48.0287 45.1968L50.6637 47.8318C51.3437 48.5118 52.45 48.5117 53.1298 47.8318L56.2306 44.7308C56.5599 44.4016 56.7412 43.9637 56.7412 43.4979C56.7412 43.0321 56.5599 42.5943 56.2306 42.2648L53.5956 39.6298C53.9449 38.959 54.2345 38.2596 54.4619 37.5375H58.1885C59.1499 37.5375 59.9324 36.7553 59.9324 35.7939V31.4083C59.9325 30.4469 59.1501 29.6647 58.1887 29.6647ZM57.4717 35.0766H53.5246C52.953 35.0766 52.4567 35.4702 52.3264 36.0268C52.0641 37.1482 51.6237 38.2118 51.0175 39.1878C50.7158 39.6735 50.7885 40.3028 51.1926 40.7072L53.9835 43.4981L51.8969 45.5846L49.1061 42.7938C48.7018 42.3895 48.0725 42.3167 47.5865 42.6185C46.6103 43.2247 45.5467 43.6651 44.4257 43.9276C43.869 44.0577 43.4754 44.554 43.4754 45.1257V49.0731H40.5248V45.1257C40.5248 44.5541 40.1312 44.0579 39.5745 43.9276C38.4535 43.6654 37.3899 43.2251 36.4135 42.6185C35.9281 42.3173 35.2986 42.3895 34.8942 42.7938L32.1033 45.5846L30.0168 43.4981L32.8076 40.7072C33.2119 40.303 33.2844 39.6736 32.9828 39.1878C32.3766 38.2117 31.9363 37.1481 31.674 36.0268C31.5439 35.4702 31.0474 35.0766 30.4758 35.0766H26.5286V32.1259H30.4758C31.0474 32.1259 31.5437 31.7324 31.674 31.1757C31.9363 30.0545 32.3766 28.9909 32.9828 28.0147C33.2844 27.5291 33.2119 26.8997 32.8076 26.4953L30.0168 23.7045L32.1033 21.6179L34.8942 24.4088C35.2981 24.813 35.9278 24.8857 36.4135 24.584C37.3896 23.9778 38.4532 23.5375 39.5745 23.2751C40.1312 23.145 40.5248 22.6487 40.5248 22.077V18.1296H43.4754V22.077C43.4754 22.6486 43.869 23.1449 44.4257 23.2751C45.5469 23.5375 46.6103 23.9778 47.5867 24.584C48.072 24.8854 48.7016 24.8127 49.1061 24.4088L51.8969 21.6179L53.9835 23.7045L51.1926 26.4953C50.7883 26.8996 50.7158 27.5289 51.0175 28.0147C51.6236 28.9906 52.0639 30.0542 52.3264 31.1757C52.4567 31.7324 52.9528 32.1259 53.5246 32.1259H57.4717V35.0766Z" fill="white"/>
<path d="M42 27.0093C38.365 27.0093 35.408 29.9665 35.408 33.6013C35.408 37.2361 38.3652 40.1933 42 40.1933C45.6348 40.1933 48.592 37.2361 48.592 33.6013C48.592 29.9665 45.6349 27.0093 42 27.0093ZM42 37.7324C39.7221 37.7324 37.8689 35.8791 37.8689 33.6013C37.8689 31.3235 39.7221 29.4702 42 29.4702C44.2778 29.4702 46.1311 31.3235 46.1311 33.6013C46.1311 35.8791 44.2778 37.7324 42 37.7324Z" fill="white"/>
<path d="M13.7113 32.3708H9.62915C8.9496 32.3708 8.39868 32.9218 8.39868 33.6013C8.39868 34.2809 8.9496 34.8318 9.62915 34.8318H13.7113C14.3909 34.8318 14.9418 34.2809 14.9418 33.6013C14.9418 32.9218 14.3909 32.3708 13.7113 32.3708Z" fill="white"/>
<path d="M74.3708 32.3708H70.2886C69.6089 32.3708 69.0581 32.9218 69.0581 33.6013C69.0581 34.2809 69.6089 34.8318 70.2886 34.8318H74.3708C75.0505 34.8318 75.6012 34.2809 75.6012 33.6013C75.6012 32.9218 75.0503 32.3708 74.3708 32.3708Z" fill="white"/>
<path d="M22.8668 52.7344C22.3864 52.2539 21.6073 52.2539 21.1266 52.7344L18.24 55.6209C17.7595 56.1015 17.7595 56.8806 18.24 57.3612C18.7206 57.8417 19.4997 57.8417 19.9803 57.3612L22.8668 54.4746C23.3473 53.9941 23.3473 53.215 22.8668 52.7344Z" fill="white"/>
<path d="M65.7598 9.84185C65.279 9.36131 64.5001 9.36131 64.0194 9.84185L61.1329 12.7284C60.6523 13.2089 60.6523 13.988 61.1329 14.4686C61.6136 14.9491 62.3925 14.9489 62.8732 14.4686L65.7598 11.5821C66.2403 11.1014 66.2403 10.3222 65.7598 9.84185Z" fill="white"/>
<path d="M42 0C41.3203 0 40.7695 0.550921 40.7695 1.23047V5.31266C40.7695 5.99221 41.3203 6.54313 42 6.54313C42.6797 6.54313 43.2305 5.99221 43.2305 5.31266V1.23047C43.2305 0.550921 42.6797 0 42 0Z" fill="#1D80EB"/>
<path d="M65.7598 55.6209L62.8732 52.7344C62.3925 52.2539 61.6136 52.2539 61.1329 52.7344C60.6523 53.215 60.6523 53.9943 61.1329 54.4746L64.0194 57.3612C64.5001 57.8417 65.279 57.8417 65.7598 57.3612C66.2403 56.8806 66.2403 56.1015 65.7598 55.6209Z" fill="white"/>
<path d="M22.8668 12.7284L19.9803 9.84185C19.4997 9.36131 18.7206 9.36131 18.24 9.84185C17.7595 10.3224 17.7595 11.1015 18.24 11.5821L21.1266 14.4686C21.6071 14.9491 22.3862 14.9491 22.8668 14.4686C23.3473 13.9879 23.3473 13.2087 22.8668 12.7284Z" fill="white"/>
<path d="M66.5484 30.5868C65.2242 19.287 56.2669 10.3289 45.0201 8.95802C44.3466 8.87516 43.7319 9.35603 43.6495 10.0305C43.5673 10.7051 44.0476 11.3187 44.7222 11.4011C54.9362 12.646 62.9064 20.6534 64.1038 30.8733C64.1772 31.4995 64.7089 31.9605 65.3243 31.9605C65.3722 31.9605 65.4204 31.9577 65.4692 31.9522C66.1444 31.8732 66.6274 31.2619 66.5484 30.5868Z" fill="white"/>
<path d="M65.4547 35.2518C64.7794 35.1659 64.1646 35.6438 64.0793 36.3181C63.2405 42.9442 59.5005 48.7909 53.8184 52.3584C51.3688 53.8965 49.9065 56.5287 49.9065 59.3995V64.4636H34.0937V59.2874C34.0937 56.5076 32.6409 53.8813 30.3025 52.4337C23.6899 48.3404 19.7419 41.2599 19.7417 33.4934C19.7417 22.2794 28.1414 12.7825 39.28 11.4028C39.9545 11.3192 40.4334 10.7047 40.3499 10.0302C40.2664 9.35592 39.6521 8.87571 38.9773 8.96036C26.6702 10.485 17.2801 21.0686 17.2803 33.4934C17.2803 37.7808 18.3954 42.0051 20.5054 45.7096C22.5508 49.301 25.4906 52.3496 29.0068 54.5262C30.6262 55.5286 31.6321 57.353 31.6321 59.2873V64.6428C30.381 65.0775 29.4788 66.2657 29.4788 67.663V69.4171C29.4788 70.1598 29.7354 70.8425 30.1615 71.386C29.7352 71.9296 29.4788 72.6121 29.4788 73.3549V75.1089C29.4788 76.8731 30.9142 78.3083 32.6782 78.3083H36.5468V81.09C36.5468 82.6947 37.8522 84.0001 39.4567 84.0001H44.5422C46.1469 84.0001 47.4521 82.6947 47.4521 81.09V78.3083H51.3207C53.0849 78.3083 54.5201 76.8729 54.5201 75.1089V73.3549C54.5201 72.6122 54.2635 71.9296 53.8373 71.386C54.2635 70.8425 54.5201 70.16 54.5201 69.4171V67.663C54.5201 66.2655 53.6181 65.0775 52.3668 64.6428V59.3993C52.3668 57.3805 53.3982 55.5276 55.1263 54.4427C61.4352 50.4816 65.5882 43.988 66.5199 36.6272C66.6061 35.9529 66.1288 35.3371 65.4547 35.2518ZM44.9915 81.0898C44.9915 81.3331 44.786 81.5389 44.5427 81.5389H39.4572C39.2139 81.5389 39.0083 81.3333 39.0083 81.0898V78.3082H44.9915V81.0898ZM52.0597 75.1088C52.0597 75.5089 51.7215 75.8471 51.3214 75.8471C49.1492 75.8471 34.7285 75.8471 32.6787 75.8471C32.2785 75.8471 31.9404 75.5089 31.9404 75.1088V73.3548C31.9404 72.9546 32.2785 72.6165 32.6787 72.6165H51.3214C51.7215 72.6165 52.0597 72.9546 52.0597 73.3548V75.1088ZM52.0597 69.417C52.0597 69.8171 51.7215 70.1553 51.3214 70.1553H32.6787C32.2785 70.1553 31.9404 69.8171 31.9404 69.417V67.6628C31.9404 67.2627 32.2785 66.9245 32.6787 66.9245H51.3214C51.7215 66.9245 52.0597 67.2627 52.0597 67.6628V69.417Z" fill="white"/>
</g>
<defs>
<clipPath id="clip0_512_514">
<rect width="84" height="84" fill="white"/>
</clipPath>
</defs>
</svg>
