<svg width="69" height="69" viewBox="0 0 69 69" fill="none" xmlns="http://www.w3.org/2000/svg">
<path d="M64.7377 61.9471C64.6977 61.1517 64.3209 60.4065 63.7039 59.9027L52.0152 50.3588C50.8883 49.4387 49.2627 49.5205 48.2338 50.5493L47.9769 50.8062L45.131 47.9602C48.5236 44.2589 50.6631 39.5207 51.1861 34.5093C51.2441 33.954 50.841 33.457 50.2857 33.3989C49.7315 33.3405 49.2335 33.7441 49.1756 34.2993C48.1252 44.3641 40.1876 52.3359 30.123 53.4252C29.568 53.4853 29.1668 53.984 29.2269 54.539C29.2873 55.0968 29.7887 55.4952 30.3407 55.4351C35.3175 54.8965 40.0238 52.7603 43.7017 49.3895L46.5476 52.2356L46.2909 52.4924C45.2621 53.5212 45.1803 55.1468 46.1003 56.2738L55.6443 67.9625C56.148 68.5795 56.8934 68.9563 57.6888 68.9963C57.736 68.9987 57.783 68.9998 57.83 68.9998C58.5758 68.9998 59.297 68.7028 59.8266 68.173L63.9146 64.0852C64.4776 63.522 64.7777 62.7426 64.7377 61.9471ZM62.4851 62.6556L58.3971 66.7434C58.2349 66.9057 58.0191 66.9892 57.7906 66.977C57.5615 66.9655 57.3554 66.8612 57.2103 66.6836L47.6663 54.9948C47.4051 54.675 47.4285 54.2137 47.7204 53.9216L49.6634 51.9785C49.9553 51.6866 50.4167 51.6633 50.7367 51.9245L62.4254 61.4683C62.603 61.6134 62.7073 61.8195 62.7188 62.0486C62.7303 62.278 62.6472 62.4934 62.4851 62.6556Z" fill="white"/>
<path d="M51.186 29.5822C50.5296 23.2907 47.3138 17.301 41.976 13.2637V1.50951C41.976 0.677061 41.2989 0 40.4666 0H34.875C34.0426 0 33.3654 0.677061 33.3654 1.50951V7.53042H28.2859C27.6304 7.53042 27.0726 7.95116 26.8645 8.53631C20.9169 8.76325 15.3639 11.1793 11.1422 15.4009C1.96431 24.5789 1.96431 39.5125 11.1422 48.6903C14.9631 52.5112 20.0314 54.9134 25.4135 55.4543C25.967 55.5105 26.4642 55.1064 26.5202 54.5498C26.576 53.9944 26.171 53.4989 25.6156 53.443C20.6963 52.9486 16.0637 50.7532 12.5717 47.261C4.18201 38.8713 4.18201 25.2201 12.5717 16.8303C16.3907 13.0113 21.4022 10.8074 26.7762 10.5616V14.1615H21.8945C21.8941 14.1615 21.8937 14.1615 21.8931 14.1615H21.6965C20.8642 14.1615 20.187 14.8386 20.187 15.6711V15.8519C18.3068 16.7307 16.6099 17.9203 15.1359 19.3945C8.16001 26.3703 8.16001 37.7208 15.1359 44.6968C18.6243 48.1852 23.2049 49.9291 27.7871 49.9287C37.4208 49.9277 45.1623 42.3852 45.6455 32.9743C45.8649 28.7002 44.5638 24.5156 41.976 21.1499V15.8694C46.0564 19.448 48.6181 24.4521 49.1753 29.792C49.2333 30.3473 49.7309 30.7504 50.2855 30.6924C50.8409 30.6346 51.2441 30.1376 51.186 29.5822ZM35.3869 2.02162H39.9544C39.9544 2.80447 39.9544 34.0221 39.9544 35.3929H35.3869C35.3869 33.9811 35.3869 3.43625 35.3869 2.02162ZM28.7978 9.55203H33.3653V35.3929H28.7978C28.7978 35.1318 28.7978 10.2839 28.7978 9.55203ZM22.2088 16.1833H26.7762V35.3929H22.2088C22.2088 34.7435 22.2088 17.1064 22.2088 16.1833ZM20.1873 18.1158V20.4575H16.9458C17.9274 19.5384 19.0121 18.7544 20.1873 18.1158ZM15.6198 22.4791H20.1873V35.3928H15.6198V22.4791ZM13.5982 24.9363V35.3928H12.2794C11.5304 31.8953 11.97 28.1924 13.5982 24.9363ZM41.9761 24.9294C43.6276 28.2069 44.0597 31.9068 43.3079 35.3929H41.9761V24.9294ZM42.7289 37.4145C41.9589 39.5554 40.716 41.5604 39.0089 43.2675C30.8168 51.4593 16.7742 48.3681 12.8551 37.4145C13.7084 37.4145 41.7821 37.4145 42.7289 37.4145Z" fill="white"/>
</svg>
