<svg width="63" height="63" viewBox="0 0 63 63" fill="none" xmlns="http://www.w3.org/2000/svg">
<g clip-path="url(#clip0_512_548)">
<path d="M62.7131 30.4274C62.2773 29.6335 61.8115 28.8617 61.3195 28.1111C55.3663 16.4712 44.4679 8.08618 31.5 8.08618C18.4974 8.08618 7.61676 16.5034 1.68024 28.1118C1.18842 28.862 0.722808 29.6337 0.287099 30.4274C-0.0956997 31.1246 -0.0956997 31.9572 0.287099 32.6542C0.722808 33.448 1.18854 34.2197 1.68036 34.9702C7.63078 46.6059 17.9429 54.059 29.2776 54.9113C29.7871 54.9493 30.2288 54.5684 30.2671 54.0602C30.3054 53.5519 29.9243 53.1089 29.416 53.0706C22.589 52.5574 16.1454 49.4835 10.9064 44.4475C16.9139 48.6334 24.1066 50.8723 31.4999 50.8723C38.8819 50.8723 46.0768 48.6397 52.0933 44.4474C46.8546 49.4833 40.4111 52.5572 33.5842 53.0705C33.0759 53.1088 32.6949 53.5518 32.7332 54.0601C32.7712 54.5657 33.211 54.949 33.7226 54.9112C45.0568 54.0588 55.3687 46.6059 61.319 34.9707C61.811 34.2201 62.2769 33.4482 62.7127 32.6541C63.0956 31.957 63.0956 31.1246 62.7131 30.4274ZM31.5 9.93201C39.2116 9.93201 46.4656 13.098 52.2484 18.743C46.1696 14.4588 38.9065 12.2094 31.5 12.2094C24.1093 12.2094 16.8427 14.4499 10.7514 18.743C16.5343 13.0981 23.7884 9.93201 31.5 9.93201ZM61.095 31.7661C55.2646 42.3866 43.947 49.0266 31.5 49.0266C18.8907 49.0266 7.65662 42.2433 1.90504 31.7661C1.82765 31.6252 1.82765 31.4568 1.90504 31.3158C7.73353 20.6984 19.0549 14.0554 31.4999 14.0554C44.5591 14.0554 55.5825 21.2751 61.0949 31.3158C61.1723 31.4567 61.1723 31.6252 61.095 31.7661Z" fill="white"/>
<path d="M31.5004 20.6929C25.4776 20.6929 20.6113 25.5946 20.6113 31.5819C20.6113 37.6287 25.53 42.4709 31.5004 42.4709C37.5309 42.4709 42.3893 37.5622 42.3893 31.5819C42.3894 25.5257 37.4594 20.6929 31.5004 20.6929ZM30.5775 22.8058V27.3586C29.7045 27.3012 28.844 27.1626 28.0053 26.9455C28.4189 25.5043 29.2773 23.5476 30.5775 22.8058ZM27.4617 23.4955C26.9308 24.3861 26.5396 25.3715 26.2515 26.3631C25.7242 26.1479 25.209 25.9005 24.7092 25.6202C25.499 24.7214 26.4344 24.0082 27.4617 23.4955ZM25.8338 28.183C25.6959 28.9793 25.6064 29.809 25.5689 30.6588H22.5039C22.6295 29.4217 23.0112 28.2253 23.634 27.1293C24.3419 27.5383 25.0768 27.891 25.8338 28.183ZM23.6735 36.1029C23.0477 35.0238 22.6363 33.8051 22.5039 32.5046H25.5688C25.6076 33.385 25.7017 34.2443 25.8482 35.0668C25.1002 35.3545 24.3736 35.7012 23.6735 36.1029ZM24.7626 37.6052C25.253 37.3329 25.7584 37.0924 26.2753 36.8826C26.5608 37.8452 26.9454 38.8016 27.4616 39.6676C26.4301 39.1525 25.5168 38.4479 24.7626 37.6052ZM30.5775 40.3579C29.2865 39.6214 28.45 37.7322 28.0299 36.3035C28.8608 36.09 29.7131 35.9536 30.5775 35.8968V40.3579ZM30.5776 34.0494C29.5757 34.1076 28.5873 34.259 27.624 34.5029C27.522 33.8824 27.4493 33.2032 27.4158 32.5046H30.5776V34.0494ZM30.5776 30.6588H27.4158C27.449 29.9658 27.5165 29.3362 27.6094 28.7485C28.5771 28.9945 29.5704 29.1473 30.5776 29.2058V30.6588ZM39.3669 27.1295C39.9967 28.2379 40.3729 29.4383 40.4968 30.6589H37.4319C37.3944 29.8092 37.305 28.9796 37.167 28.1831C37.9241 27.8911 38.659 27.5383 39.3669 27.1295ZM38.2917 25.6202C37.7919 25.9006 37.2767 26.148 36.7493 26.3632C36.4618 25.3738 36.0709 24.3881 35.539 23.4955C36.5859 24.019 37.507 24.7275 38.2917 25.6202ZM32.4233 22.8057C33.4307 23.381 34.3965 24.8578 34.9954 26.9454C34.1568 27.1624 33.2963 27.3011 32.4233 27.3584V22.8057ZM32.4232 29.2059C33.4306 29.1474 34.4239 28.9946 35.3917 28.7485C35.4871 29.3527 35.5529 29.9913 35.585 30.6589H32.4232V29.2059ZM32.4232 40.3577V35.8967C33.2875 35.9535 34.1397 36.09 34.9708 36.3035C34.3704 38.3462 33.4172 39.7905 32.4232 40.3577ZM32.4232 34.0494V32.5048H35.585C35.5514 33.2053 35.4797 33.8727 35.3767 34.503C34.4136 34.259 33.4253 34.1076 32.4232 34.0494ZM35.5391 39.6676C36.0552 38.8018 36.4399 37.8452 36.7254 36.8826C37.2423 37.0923 37.7476 37.3329 38.238 37.6052C37.4962 38.4344 36.5833 39.1467 35.5391 39.6676ZM39.3271 36.103C38.627 35.7013 37.9005 35.3547 37.1524 35.067C37.2989 34.2444 37.3929 33.3852 37.4318 32.5046H40.4967C40.3643 33.8052 39.9531 35.0238 39.3271 36.103Z" fill="white"/>
<path d="M45.1299 32.8238C44.6263 32.7441 44.1536 33.0876 44.074 33.5909C43.0896 39.8042 37.8016 44.3139 31.5002 44.3139C24.4798 44.3139 18.7682 38.6023 18.7682 31.5819C18.7682 24.5614 24.4798 18.8499 31.5002 18.8499C37.8017 18.8499 43.0896 23.3595 44.074 29.5729C44.1536 30.0762 44.6261 30.4198 45.1299 30.34C45.6333 30.2602 45.9767 29.7875 45.8968 29.2841C45.3599 25.8939 43.6247 22.7865 41.0113 20.5344C38.3694 18.2578 34.9917 17.0042 31.5002 17.0042C23.4621 17.0042 16.9224 23.5438 16.9224 31.582C16.9224 39.6202 23.4619 46.1596 31.5001 46.1596C34.9917 46.1596 38.3694 44.906 41.0111 42.6294C43.6247 40.3772 45.3597 37.2698 45.8967 33.8797C45.9766 33.3763 45.6332 32.9035 45.1299 32.8238Z" fill="white"/>
</g>
<defs>
<clipPath id="clip0_512_548">
<rect width="63" height="63" fill="white"/>
</clipPath>
</defs>
</svg>
